<mxfile host="app.diagrams.net" modified="2023-11-03T13:39:51.978Z" agent="Mozilla/5.0 (Windows NT 10.0; Win64; x64; rv:109.0) Gecko/20100101 Firefox/119.0" version="22.0.8" etag="IOMO-4coeBBSUJM2yf8A" type="github">
  <diagram name="ページ1" id="EhN3UYNR5NnD2RHJAe9j">
    <mxGraphModel>
      <root>
        <mxCell id="0" />
        <mxCell id="1" parent="0" />
      </root>
    </mxGraphModel>
  </diagram>
</mxfile>
